<svg width="7" height="11" viewBox="0 0 7 11" fill="none" xmlns="http://www.w3.org/2000/svg">
<path fill-rule="evenodd" clip-rule="evenodd" d="M6.68799 4.8035C6.88777 4.98824 7 5.23877 7 5.5C7 5.76123 6.88777 6.01176 6.68799 6.1965L1.79343 10.7213C1.59491 10.9011 1.32763 11.0013 1.04967 11C0.771718 10.9987 0.505548 10.896 0.309002 10.7143C0.112456 10.5326 0.00141732 10.2866 1.3474e-05 10.0296C-0.00139037 9.77268 0.106955 9.52559 0.301505 9.34207L4.45757 5.5L0.301505 1.65793C0.106955 1.47441 -0.00139037 1.22732 1.3474e-05 0.970369C0.00141732 0.713414 0.112456 0.467353 0.309002 0.285657C0.505548 0.10396 0.771718 0.00131024 1.04967 1.24561e-05C1.32763 -0.00128533 1.59491 0.0988741 1.79343 0.278726L6.68799 4.8035Z" fill="#0044CC"/>
</svg>
